# xmcd
#
# Track frame offsets: 
#        150
#        12417
#        25767
#        37300
#        49972
#        61850
#        72695
#        84532
#        95350
#        107682
#        118497
#        130787
#        143957
#        154935
#        165937
#        179442
#        191685
#        201600
#        213867
#        226917
#        238680
#        249702
#        261910
#
# Disc length: 3657 seconds
#
# Revision: 0
# Processed by: cddbd v1.4PL0 Copyright (c) Steve Scherf et al.
# Submitted via: ExactAudioCopy v0.95a3
#
DISCID=590e4717
DTITLE=Hank Williams - His Best Recordings
DYEAR=1995
DGENRE=Country
TTITLE0=Lost Highway
TTITLE1=You're Gonna Change
TTITLE2=My Bucket's Got A Hole In It
TTITLE3=I Just Don't Like This Kind Of Living
TTITLE4=Long Gone Lonesome Blues
TTITLE5=Why Don't You Love Me
TTITLE6=Why Should We Try Anymore
TTITLE7=Moanin' The Blues
TTITLE8=Cold, Cold Heart
TTITLE9=I Can't Help It
TTITLE10=Howlin' At The Moon
TTITLE11=Hey, Good Lookin'
TTITLE12=My Heart Would Know
TTITLE13=(I Heard That) Lonesome Whistle
TTITLE14=I'd Still Want You
TTITLE15=I'm Sorry For You, My Friend
TTITLE16=Honky Tonk Blues
TTITLE17=Half As Much
TTITLE18=Jambalay (On The Bayou)
TTITLE19=You Win Again
TTITLE20=I'll Never Get Out Of This World Alive
TTITLE21=Your Cheatin' Heart
TTITLE22=I Won't Be Home No More
EXTD=
EXTT0=
EXTT1=
EXTT2=
EXTT3=
EXTT4=
EXTT5=
EXTT6=
EXTT7=
EXTT8=
EXTT9=
EXTT10=
EXTT11=
EXTT12=
EXTT13=
EXTT14=
EXTT15=
EXTT16=
EXTT17=
EXTT18=
EXTT19=
EXTT20=
EXTT21=
EXTT22=
PLAYORDER=
